HIERARCHY
ROOT ui
{
	 OFFSET 0 0 0
	 CHANNELS 3 XPosition YPosition Z Position
	 EndSite
	 {
	 OFFSET 0 -1 0
	 }
}
ROOT li
{
	 OFFSET 0 0 0
	 CHANNELS 3 XPosition YPosition Z Position
	 EndSite
	 {
	 OFFSET 0 -1 0
	 }
}
ROOT ul
{
	 OFFSET 0 0 0
	 CHANNELS 3 XPosition YPosition Z Position
	 EndSite
	 {
	 OFFSET 0 -1 0
	 }
}
ROOT ll
{
	 OFFSET 0 0 0
	 CHANNELS 3 XPosition YPosition Z Position
	 EndSite
	 {
	 OFFSET 0 -1 0
	 }
}
ROOT tt
{
	 OFFSET 0 0 0
	 CHANNELS 3 XPosition YPosition Z Position
	 EndSite
	 {
	 OFFSET 0 -1 0
	 }
}
ROOT tb
{
	 OFFSET 0 0 0
	 CHANNELS 3 XPosition YPosition Z Position
	 EndSite
	 {
	 OFFSET 0 -1 0
	 }
}
ROOT td
{
	 OFFSET 0 0 0
	 CHANNELS 3 XPosition YPosition Z Position
	 EndSite
	 {
	 OFFSET 0 -1 0
	 }
}
ROOT v
{
	 OFFSET 0 0 0
	 CHANNELS 3 XPosition YPosition Z Position
	 EndSite
	 {
	 OFFSET 0 -1 0
	 }
}
ROOT bn
{
	 OFFSET 0 0 0
	 CHANNELS 3 XPosition YPosition Z Position
	 EndSite
	 {
	 OFFSET 0 -1 0
	 }
}
MOTION
Frames: 24
Frame Time: 0.002
-0.006276070117950439	-3.2319098711013793E-4	0		0.63476513671875	-2.727335205078125	0		-0.9892006225585938	0.40324996948242187	0		-0.1986643829345703	-3.42994482421875	0		2.334369384765625	-1.355368896484375	0		4.022119873046875	-0.3543223876953125	0		5.128556640625	-0.3018321838378906	0		5.95794482421875	0.3141854553222656	0		-0.3411555786132813	5.86642626953125	0		
-0.006069855213165283	-3.8633498549461365E-4	0		0.6410115356445313	-2.740410888671875	0		-0.9839846801757812	0.40709814453125	0		-0.19138966369628907	-3.44407080078125	0		2.3404462890625	-1.381357177734375	0		4.039160400390625	-0.3783083801269531	0		5.11777099609375	-0.3025482177734375	0		5.9659287109375	0.3110001220703125	0		-0.3052203674316406	5.87007080078125	0		
-0.0058730578422546385	-4.4768500328063967E-4	0		0.6552871704101563	-2.74555078125	0		-1.0077742309570312	0.4111772155761719	0		-0.1910455322265625	-3.44414013671875	0		2.346648681640625	-1.388363525390625	0		4.05448681640625	-0.3633110961914062	0		5.13291162109375	-0.3115040588378906	0		5.958236328125	0.3149413146972656	0		-0.3413040771484375	5.8662705078125	0		
0.006332737922668457	0.0024020340442657473	0		0.6805241088867188	-2.750777099609375	0		-0.9355763549804688	0.4145393981933594	0		-0.18184521484375	-3.4572734375	0		2.344848388671875	-1.392328857421875	0		4.028441162109375	-0.3950367431640625	0		5.12412109375	-0.3093231506347656	0		5.95836865234375	0.3151849365234375	0		-0.30826535034179686	5.8729501953125	0		
-0.005522736072540283	-5.645070075988769E-4	0		0.6487267456054687	-2.754576904296875	0		-0.9784482421875	0.410784423828125	0		-0.20160365295410157	-3.45818408203125	0		2.369919189453125	-1.409518798828125	0		4.019640380859375	-0.39193106079101564	0		5.117197265625	-0.3222062072753906	0		5.95197314453125	0.2843080139160156	0		-0.35636407470703124	5.856248046875	0		
-0.005375339984893799	-6.199820041656494E-4	0		0.697833984375	-2.7649921875	0		-0.9453373413085937	0.4064677429199219	0		-0.20746292114257814	-3.46519677734375	0		2.37197998046875	-1.423557373046875	0		4.027626953125	-0.41399273681640625	0		5.11822119140625	-0.3392007751464844	0		5.944951171875	0.2862090148925781	0		-0.34121951293945313	5.86607470703125	0		
-0.005249705791473389	-6.736429929733276E-4	0		0.6529307861328125	-2.769705078125	0		-0.9781818237304688	0.41065972900390624	0		-0.19842591857910155	-3.478318359375	0		2.369079345703125	-1.4275819091796875	0		4.0258291015625	-0.4040206298828125	0		5.10835546875	-0.33816522216796874	0		5.945041015625	0.28614431762695314	0		-0.3411098937988281	5.86602001953125	0		
-0.0051469550132751465	-7.254980206489563E-4	0		0.6799889526367188	-2.77296533203125	0		-0.9731137084960938	0.40557781982421875	0		-0.19935731506347656	-3.479361083984375	0		2.347073974609375	-1.44048583984375	0		4.029747802734375	-0.42813284301757815	0		5.11250048828125	-0.3322865905761719	0		5.9451142578125	0.2859756774902344	0		-0.30691793823242186	5.87171435546875	0		
0.002985614061355591	0.006163898944854736	0		0.653043212890625	-2.76982373046875	0		-0.9779886474609375	0.41058258056640623	0		-0.2013540496826172	-3.481392578125	0		2.38008203125	-1.4468265380859375	0		4.033835205078125	-0.42628457641601564	0		5.108529296875	-0.3383968505859375	0		5.94023681640625	0.30482763671875	0		-0.3067339477539063	5.871669921875	0		
-0.005009018898010254	-8.238329887390137E-4	0		0.6838805541992188	-2.78912451171875	0		-0.9499808349609375	0.4023489074707031	0		-0.2074441680908203	-3.488389892578125	0		2.37302490234375	-1.45688671875	0		4.021783447265625	-0.43935211181640627	0		5.108578125	-0.3385851135253906	0		5.9373759765625	0.28894546508789065	0		-0.3075076599121094	5.87263720703125	0		
-0.00497159194946289	-8.711709976196289E-4	0		0.6558243408203125	-2.78798388671875	0		-0.9499286499023437	0.4023361511230469	0		-0.17959613037109376	-3.496642822265625	0		2.373894775390625	-1.4720283203125	0		4.014713623046875	-0.45149319458007814	0		5.098603515625	-0.3387434997558594	0		5.9381025390625	0.28501422119140624	0		-0.3412923278808594	5.86785986328125	0		
-0.004952602863311768	-9.1839200258255E-4	0		0.6806777954101563	-2.79325244140625	0		-0.949891357421875	0.40233181762695314	0		-0.2028117218017578	-3.506505615234375	0		2.342779052734375	-1.48094580078125	0		4.01359716796875	-0.4667147521972656	0		5.09947705078125	-0.35602947998046874	0		5.934498046875	0.26896267700195314	0		-0.30985470581054686	5.88758984375	0		
2.0123999565839767E-5	-0.0050046582221984865	0		0.6655015258789062	-2.79722119140625	0		-0.9878649291992188	0.40262774658203127	0		-0.1890502471923828	-3.513650634765625	0		2.3807099609375	-1.48041259765625	0		4.021783935546875	-0.4400404052734375	0		5.09350830078125	-0.3503047180175781	0		5.94233203125	0.26472283935546875	0		-0.27549017333984377	5.8932958984375	0		
0.003097762107849121	0.005922630786895752	0		0.6813690185546875	-2.791435302734375	0		-0.9448179321289063	0.4063046875	0		-0.20321788024902343	-3.506579345703125	0		2.34260546875	-1.481311767578125	0		4.009493408203125	-0.4732412414550781	0		5.0904482421875	-0.3546419677734375	0		5.93448876953125	0.26761669921875	0		-0.30629940795898436	5.87250537109375	0		
-0.0049709930419921874	-0.0010647900104522705	0		0.6501336059570313	-2.795288818359375	0		-0.9647962646484375	0.4074758605957031	0		-0.13265431213378906	-3.530171875	0		2.373418212890625	-1.4907647705078124	0		4.000470458984375	-0.47049459838867186	0		5.07636279296875	-0.3609296264648437	0		5.93025634765625	0.285940185546875	0		-0.30591305541992186	5.87247607421875	0		
-2.0069999620318412E-5	-0.005155401229858398	0		0.6837952880859375	-2.80965771484375	0		-0.964782958984375	0.40749652099609374	0		-0.20292555236816406	-3.5286591796875	0		2.36520263671875	-1.50193017578125	0		4.0053466796875	-0.4798847961425781	0		5.07631884765625	-0.36136105346679687	0		5.9357705078125	0.23134580993652343	0		-0.33952926635742187	5.867716796875	0		
-0.0050034627914428715	-0.001168481945991516	0		0.65556201171875	-2.8085419921875	0		-0.9598052978515625	0.40248171997070314	0		-0.1433317413330078	-3.54217529296875	0		2.375913818359375	-1.5212615966796874	0		4.004380615234375	-0.46925375366210936	0		5.07525830078125	-0.3638161315917969	0		5.9280107421875	0.26171585083007814	0		-0.322998779296875	5.87656298828125	0		
0.021987396240234373	-0.001440248966217041	0		0.6672555541992188	-2.8157490234375	0		-0.9547467041015625	0.4064696960449219	0		-0.20656939697265625	-3.532707763671875	0		2.37577490234375	-1.5215196533203126	0		3.998154541015625	-0.49160247802734375	0		5.07521875	-0.36430609130859376	0		5.9351318359375	0.260602294921875	0		-0.3084054870605469	5.88842333984375	0		
-9.763280153274537E-4	0.002691754102706909	0		0.6929799194335937	-2.819075439453125	0		-0.9596661376953125	0.4115423583984375	0		-0.13203373718261718	-3.551355712890625	0		2.370583984375	-1.52874609375	0		4.000243896484375	-0.4760327453613281	0		5.05621435546875	-0.3616611022949219	0		5.92799609375	0.2597275085449219	0		-0.2728334045410156	5.89311083984375	0		
0.022006187438964844	-0.0015509510040283203	0		0.6777600708007813	-2.816068359375	0		-0.9706115112304687	0.4116694641113281	0		-0.17926251220703124	-3.541008056640625	0		2.366400634765625	-1.5359852294921874	0		3.99504248046875	-0.49741424560546876	0		5.0661962890625	-0.36226519775390625	0		5.92800146484375	0.2586863708496094	0		-0.3083028869628906	5.88938134765625	0		
-0.00496412992477417	-0.001377843976020813	0		0.6854231567382812	-2.828249267578125	0		-0.8945465087890625	0.4110747985839844	0		-0.151643310546875	-3.550275390625	0		2.35820166015625	-1.54619140625	0		3.980116943359375	-0.4867160034179687	0		5.04619189453125	-0.3626256408691406	0		5.92801611328125	0.25763385009765627	0		-0.30771939086914063	5.889359375	0		
-0.004924999237060547	-0.0014245589971542357	0		0.6592221069335937	-2.825141357421875	0		-0.9704657592773438	0.41175457763671874	0		-0.1719887237548828	-3.556138916015625	0		2.365027099609375	-1.554519775390625	0		3.9839072265625	-0.5111713256835938	0		5.05212890625	-0.3711989440917969	0		5.9364580078125	0.21662213134765626	0		-0.27495703125	5.90906982421875	0		
-8.444060087203979E-4	0.002499202013015747	0		0.6600234985351563	-2.823253662109375	0		-0.964415283203125	0.4077511901855469	0		-0.1702552490234375	-3.5541826171875	0		2.32895654296875	-1.55147412109375	0		3.98720556640625	-0.4766105651855469	0		5.05924365234375	-0.3597707214355469	0		5.94301171875	0.24660110473632812	0		-0.2403201141357422	5.91376220703125	0		
0.0032331509590148924	0.005428516864776611	0		0.6598209228515625	-2.82334912109375	0		-0.8942950439453125	0.4111970520019531	0		-0.13855940246582032	-3.5584794921875	0		2.364841064453125	-1.55503076171875	0		3.950077392578125	-0.49268536376953126	0		5.041306640625	-0.35510696411132814	0		5.928095703125	0.2545763854980469	0		-0.2568046569824219	5.90589501953125	0		
